<?xml version="1.0" standalone="no"?>
<!DOCTYPE svg PUBLIC "-//W3C//DTD SVG 1.1//EN"
  "http://www.w3.org/Graphics/SVG/1.1/DTD/svg11.dtd">
<svg width="100.99400329589844mm" height="72.70999908447266mm" viewBox="-48.99700164794922 -38.85499954223633 100.99400329589844 72.70999908447266" xmlns="http://www.w3.org/2000/svg" version="1.1">
	<title>svgOutput</title>
	<desc>made with tinkercad</desc>
<path d="M -47.99700164794922 -2.5 L -40.92599868774414 -9.571000099182129 L -19.71299934387207 -30.784000396728516 L -12.642000198364258 -37.85499954223633 L -5.571000099182129 -30.784000396728516 L 1.5 -23.71299934387207 L 8.571000099182129 -30.784000396728516 L 15.642000198364258 -37.85499954223633 L 22.71299934387207 -30.784000396728516 L 29.784000396728516 -23.71299934387207 L 43.92599868774414 -9.571000099182129 L 50.99700164794922 -2.5 L 43.92599868774414 4.571000099182129 L 22.71299934387207 25.784000396728516 L 15.642000198364258 32.85499954223633 L 8.571000099182129 25.784000396728516 L 1.5 18.71299934387207 L -5.571000099182129 25.784000396728516 L -12.642000198364258 32.85499954223633 L -19.71299934387207 25.784000396728516 L -40.92599868774414 4.571000099182129 L -47.99700164794922 -2.5 M -24.30900001525879 2.0959999561309814 L -19.71299934387207 -2.5 L -12.642000198364258 -9.571000099182129 L 1.5 4.571000099182129 L 15.642000198364258 18.71299934387207 L 36.85499954223633 -2.5 L 22.71299934387207 -16.642000198364258 L 15.642000198364258 -23.71299934387207 L 8.571000099182129 -16.642000198364258 L 1.5 -9.571000099182129 L -5.571000099182129 -16.642000198364258 L -12.642000198364258 -23.71299934387207 L -19.71299934387207 -16.642000198364258 L -26.784000396728516 -9.571000099182129 L -31.3799991607666 -4.974999904632568 L -33.85499954223633 -2.5 L -12.642000198364258 18.71299934387207 L -10.166999816894531 16.238000869750977 L -5.571000099182129 11.642000198364258 L -12.642000198364258 4.571000099182129 L -17.238000869750977 9.166999816894531 L -24.30900001525879 2.0959999561309814 z" fill="none" stroke="rgb(255,0,0)" stroke-width="0.001mm" />
</svg>